<svg xmlns="http://www.w3.org/2000/svg" height="1000" fill="none" viewBox="0 0 100% 1000"><g filter="url(#prefix__a)"><path fill="url(#prefix__b)" d="M1015.6 1005.87c166.99 44.74 338.64-54.358 383.38-221.348 44.75-166.991-54.35-338.636-221.34-383.38-166.99-44.745-338.637 54.354-383.382 221.344a315.698 315.698 0 0 0-8.331 42.545 266.57 266.57 0 0 0-41.423-14.841c-141.274-37.854-286.486 45.984-324.34 187.258-37.855 141.274 45.984 286.482 187.258 324.342 141.273 37.85 286.486-45.99 324.34-187.26.372-1.388.732-2.776 1.08-4.165 25.118 15.401 52.85 27.487 82.758 35.505Z"/></g><g filter="url(#prefix__c)" opacity=".5"><circle cx="404.308" cy="787.709" r="341.014" fill="#B83CE3"/></g><defs><filter id="prefix__a" width="1778.17" height="1559.99" x="21.318" y=".642" color-interpolation-filters="sRGB" filterUnits="userSpaceOnUse"><feFlood flood-opacity="0" result="BackgroundImageFix"/><feBlend in="SourceGraphic" in2="BackgroundImageFix" result="shape"/><feGaussianBlur result="effect1_foregroundBlur_1253_1687" stdDeviation="194.878"/></filter><filter id="prefix__c" width="1461.54" height="1461.54" x="-326.463" y="56.939" color-interpolation-filters="sRGB" filterUnits="userSpaceOnUse"><feFlood flood-opacity="0" result="BackgroundImageFix"/><feBlend in="SourceGraphic" in2="BackgroundImageFix" result="shape"/><feGaussianBlur result="effect1_foregroundBlur_1253_1687" stdDeviation="194.878"/></filter><linearGradient id="prefix__b" x1="554.618" x2="701.256" y1="978.254" y2="327.674" gradientUnits="userSpaceOnUse"><stop offset=".105" stop-color="#43BBFF"/><stop offset=".84" stop-color="#0027B3"/></linearGradient></defs></svg>